<svg width="258" height="349" viewBox="0 0 258 349" fill="none" xmlns="http://www.w3.org/2000/svg">
<path d="M258 349H0V96L96 0H258V349Z" fill="white"/>
<rect x="49" y="120" width="20" height="20" fill="#A5CD9F"/>
<rect x="69" y="120" width="20" height="20" fill="#13A90F"/>
<rect x="89" y="120" width="20" height="20" fill="#4CB341"/>
<rect x="109" y="120" width="20" height="20" fill="#9DC79D"/>
<rect x="129" y="120" width="20" height="20" fill="#D2D2D2"/>
<rect x="149" y="120" width="20" height="20" fill="#85DC74"/>
<rect x="169" y="120" width="20" height="20" fill="#7DCC6E"/>
<rect x="189" y="120" width="20" height="20" fill="#4D904A"/>
<rect x="49" y="140" width="20" height="20" fill="#299326"/>
<rect x="69" y="140" width="20" height="20" fill="#5FC559"/>
<rect x="89" y="140" width="20" height="20" fill="#41B736"/>
<rect x="109" y="140" width="20" height="20" fill="#80BF78"/>
<rect x="129" y="140" width="20" height="20" fill="#5E875B"/>
<rect x="149" y="140" width="20" height="20" fill="#80BF78"/>
<rect x="169" y="140" width="20" height="20" fill="#65BC55"/>
<rect x="189" y="140" width="20" height="20" fill="#6EC965"/>
<rect x="49" y="160" width="20" height="20" fill="#47C536"/>
<rect x="69" y="160" width="20" height="20" fill="#1F5417"/>
<rect x="89" y="160" width="20" height="20" fill="#385831"/>
<rect x="109" y="160" width="20" height="20" fill="#93D78C"/>
<rect x="129" y="160" width="20" height="20" fill="#579856"/>
<rect x="149" y="160" width="20" height="20" fill="#1E4E18"/>
<rect x="169" y="160" width="20" height="20" fill="#385831"/>
<rect x="189" y="160" width="20" height="20" fill="#DCDCDC"/>
<rect x="49" y="180" width="20" height="20" fill="#4CCB3D"/>
<rect x="69" y="180" width="20" height="20" fill="#1E4E18"/>
<rect x="89" y="180" width="20" height="20" fill="black"/>
<rect x="109" y="180" width="20" height="20" fill="#67CF55"/>
<rect x="129" y="180" width="20" height="20" fill="#47B239"/>
<rect x="149" y="180" width="20" height="20" fill="black"/>
<rect x="169" y="180" width="20" height="20" fill="#173A14"/>
<rect x="189" y="180" width="20" height="20" fill="#78CE67"/>
<rect x="49" y="200" width="20" height="20" fill="#89D282"/>
<rect x="69" y="200" width="20" height="20" fill="#65B757"/>
<rect x="89" y="200" width="20" height="20" fill="#94D78E"/>
<rect x="109" y="200" width="20" height="20" fill="#1C4F14"/>
<rect x="129" y="200" width="20" height="20" fill="#1D4C16"/>
<rect x="149" y="200" width="20" height="20" fill="#C3D2C0"/>
<rect x="169" y="200" width="20" height="20" fill="#488C45"/>
<rect x="189" y="200" width="20" height="20" fill="#5ED04C"/>
<rect x="49" y="220" width="20" height="20" fill="#A4D29A"/>
<rect x="69" y="220" width="20" height="20" fill="#51974E"/>
<rect x="89" y="220" width="20" height="20" fill="#385831"/>
<rect x="109" y="220" width="20" height="20" fill="black"/>
<rect x="129" y="220" width="20" height="20" fill="black"/>
<rect x="149" y="220" width="20" height="20" fill="#1F5518"/>
<rect x="169" y="220" width="20" height="20" fill="#67D755"/>
<rect x="189" y="220" width="20" height="20" fill="#BFD2BB"/>
<rect x="49" y="240" width="20" height="20" fill="#C2E2BB"/>
<rect x="69" y="240" width="20" height="20" fill="#67A166"/>
<rect x="89" y="240" width="20" height="20" fill="black"/>
<rect x="109" y="240" width="20" height="20" fill="black"/>
<rect x="129" y="240" width="20" height="20" fill="black"/>
<rect x="149" y="240" width="20" height="20" fill="black"/>
<rect x="169" y="240" width="20" height="20" fill="#5FBC50"/>
<rect x="189" y="240" width="20" height="20" fill="#51984D"/>
<rect x="49" y="260" width="20" height="20" fill="#67D755"/>
<rect x="69" y="260" width="20" height="20" fill="#82DE70"/>
<rect x="89" y="260" width="20" height="20" fill="#173A14"/>
<rect x="109" y="260" width="20" height="20" fill="#93D284"/>
<rect x="129" y="260" width="20" height="20" fill="#AED0A8"/>
<rect x="149" y="260" width="20" height="20" fill="#1D4C16"/>
<rect x="169" y="260" width="20" height="20" fill="#3B8E37"/>
<rect x="189" y="260" width="20" height="20" fill="#68CF57"/>
</svg>
